<svg width="30" height="30" viewBox="0 0 30 30" fill="none" xmlns="http://www.w3.org/2000/svg">
<path d="M19.1861 14.6512C18.614 14.6512 18.1395 14.1767 18.1395 13.6047V12.2093C18.1395 10.1721 17.6372 9.06977 15 9.06977C12.3628 9.06977 11.8605 10.1721 11.8605 12.2093V13.6047C11.8605 14.1767 11.3861 14.6512 10.814 14.6512C10.2419 14.6512 9.76746 14.1767 9.76746 13.6047V12.2093C9.76746 10.9116 9.76746 6.97675 15 6.97675C20.2326 6.97675 20.2326 10.9116 20.2326 12.2093V13.6047C20.2326 14.1767 19.7582 14.6512 19.1861 14.6512Z" fill="#1C1A27"/>
<path d="M15.0005 19.6743C13.968 19.6743 13.1168 18.8231 13.1168 17.7906C13.1168 16.758 13.968 15.9068 15.0005 15.9068C16.0331 15.9068 16.8841 16.758 16.8841 17.7906C16.8841 18.8231 16.0331 19.6743 15.0005 19.6743ZM15.0005 17.5813C14.8889 17.5813 14.7911 17.6789 14.7911 17.7906C14.7911 18.0278 15.2098 18.0278 15.2098 17.7906C15.2098 17.6789 15.1122 17.5813 15.0005 17.5813Z" fill="#1C1A27"/>
<path d="M18.4884 23.0233H11.5116C8.16279 23.0233 6.97675 21.8372 6.97675 18.4884V17.093C6.97675 13.7442 8.16279 12.5581 11.5116 12.5581H18.4884C21.8372 12.5581 23.0233 13.7442 23.0233 17.093V18.4884C23.0233 21.8372 21.8372 23.0233 18.4884 23.0233ZM11.5116 14.6512C9.29302 14.6512 9.06977 14.8744 9.06977 17.093V18.4884C9.06977 20.707 9.29302 20.9302 11.5116 20.9302H18.4884C20.707 20.9302 20.9302 20.707 20.9302 18.4884V17.093C20.9302 14.8744 20.707 14.6512 18.4884 14.6512H11.5116Z" fill="#1C1A27"/>
<path d="M15 30C6.72558 30 0 23.2744 0 15C0 6.72558 6.72558 0 15 0C23.2744 0 30 6.72558 30 15C30 23.2744 23.2744 30 15 30ZM15 2.09302C7.88372 2.09302 2.09302 7.88372 2.09302 15C2.09302 22.1163 7.88372 27.907 15 27.907C22.1163 27.907 27.907 22.1163 27.907 15C27.907 7.88372 22.1163 2.09302 15 2.09302Z" fill="#1C1A27"/>
</svg>
