<svg width="48" height="48" viewBox="0 0 48 48" fill="none" xmlns="http://www.w3.org/2000/svg">
<path d="M42 11.96C35.34 11.3 28.64 10.96 21.96 10.96C18 10.96 14.04 11.16 10.08 11.56L6 11.96" stroke="#FF4970" stroke-width="4" stroke-linecap="round" stroke-linejoin="round"/>
<path d="M17 9.94L17.44 7.32C17.76 5.42 18 4 21.38 4H26.62C30 4 30.26 5.5 30.56 7.34L31 9.94" stroke="#FF4970" stroke-width="4" stroke-linecap="round" stroke-linejoin="round"/>
<path d="M37.7001 18.28L36.4001 38.42C36.1801 41.56 36 44 30.42 44H17.58C12 44 11.82 41.56 11.6 38.42L10.3 18.28" stroke="#FF4970" stroke-width="4" stroke-linecap="round" stroke-linejoin="round"/>
<path d="M20.6599 33H27.3199" stroke="#FF4970" stroke-width="4" stroke-linecap="round" stroke-linejoin="round"/>
<path d="M19 25H29" stroke="#FF4970" stroke-width="4" stroke-linecap="round" stroke-linejoin="round"/>
</svg>
